<svg id="Layer_2" data-name="Layer 2" xmlns="http://www.w3.org/2000/svg" viewBox="0 0 572.26 740.92"><defs><style>.cls-1{fill:#fff6e1;}.cls-2{fill:#ea4435;}.cls-3{fill:#0f9d58;}.cls-4{fill:#4285f4;}.cls-5{fill:#fbbc04;}.cls-11,.cls-6{fill:#231f20;}.cls-7{fill:#ea4335;}.cls-8{fill:#fff;}.cls-9{fill:#83bbff;}.cls-10,.cls-12{fill:none;stroke-linecap:round;}.cls-10,.cls-11,.cls-12{stroke:#231f20;}.cls-10{stroke-miterlimit:10;}.cls-10,.cls-11{stroke-width:4px;}.cls-11,.cls-12{stroke-linejoin:round;}.cls-12{stroke-width:8px;}</style></defs><title>meomeo</title><path class="cls-1" d="M667.64,609.17c-2.25,6.16-9.79,17.78-16.36,23C641.45,640,628.57,643,628.57,643c-6.85,1.92-28.82,4.31-39.09,3.94-7.09-.26-20.78-1.55-28.27-3.54-2.28-.6-11.18-4.2-11.18-4.2A339.69,339.69,0,0,1,547.11,692c-5.17,38.44-36.43,93.54-46.08,104-10.46,11.33-32.78,10.31-44.87,5.23-5.44-2.3-8.21-5.15-8.13-6.78.28-5.33,3.68-9.15,7-12.85,3.06-3.44,6.22-7,5.91-11.67-.1-1.47-.55-3.86-1.31-7.83-2.65-14-14.83-46.61-13.53-86.65l.18-5.81.14.14c-.17,0-17.85.4-25.36.28l-1-.1.39,6c0,.6-1.17,59.79-13.07,90.09-3.32,8.46,1.34,14.16,4.74,18.32,2.93,3.58,4.56,5.77,4.14,9.16-.91,7.32-17.55,12.57-27.1,11.87-.8-.06-1.63-.1-2.49-.15-9.26-.46-29.85,5.31-48.37-28.49-8.71-15.88-20.7-34.29-28-59.22-7.74-26.34-16.89-58.67-17-99.56-.11-32,5.28-60.27,8.6-80.44,3.74-22.8,2.61-35.75,2.68-36l4.26-6c.75-2.46,3.77-3.65,1.53-4.93l-2.5-3.83c-.7-.4-71.18-13.49-99.53-74.3-14.89-31.93-15.5-51.87-11.3-57.36a6.9,6.9,0,0,1,5.61-2.84,9.06,9.06,0,0,1,3.64.82c5.44,2.41,10.35,6.22,16.58,11,11.15,8.66,26.43,20.51,56.58,33.89,13.64,6,51.78,14.78,69.56,14.93,0,0-21-4.33-23.75-5.31-13.58-4.78-42.24-15.89-54.5-26.9-17.62-15.83-43.26-40.88-48.85-74.26-2.1-12.56-2.26-30.49-1-45.8,3.48-42.19,27.85-69.78,37.64-90.15h0c.41-.86.82-1.69,1.21-2.5,4.74-9.85,7.61-15.8,8-20.36.45-5.4-1.08-12.78-3-22.12-2.67-12.86-6-28.86-4.38-42.66,1-8.32,2.86-9.9,2.86-9.92,1.43-.3,5.93,2.39,8.1,3.68,1,.59,2,1.17,2.91,1.69,8.2,4.56,45,29.22,45.39,29.47l2.86,1.92,3.19-1.29c19.51-7.88,37.79-13.48,63.32-16.53h0c14.86-1.78,32.17-2.7,53.61-2.7,59.45,0,96.89,18.79,97.26,19l2.78,1.43.95.49,3.29-2.61c20.61-16.42,46.53-34,53.45-35,2.57,2,5.91,12,2.56,38.75a65.1,65.1,0,0,1-2.21,9.33c-3.65,12.71-8.65,30.12,8.51,58.86,19.66,32.94,38.53,84.43,34.58,123.91-4.23,42.29-23,78.66-48.24,95.31-27.88,18.37-70.41,18.8-101.59,22.74-3.53.44-7,.88-10.41,1.33h-.35c17,15.31,50.37,29.7,45.72,31.63-6,2.49,9.54,5.23,16.47,8.1,49.87,20.7,73.54,32.39,81.59,32.67a37.74,37.74,0,0,0,12.46-1.73c3.44-1,4.87-1.36,7.81,0,1.27.57,3,3,3.66,6.92,1,5.68-1.64,22-7.9,28.24C623,548.33,568.54,542.1,537,537.14l-8.86-1.4,9.3,7.22c.71,2.2,4.61,6.25,5.45,8.74,4.29,12.61,10,29.39,13.77,53.6,0,0,4.62,6,9.25,5.41,8.31-1,30.48-15.72,30.48-15.72l10.87-5.56s20.66-14,36-17.3c12.08-2.57,19.17,5.19,21.28,7.42C670.19,585.48,672.9,594.72,667.64,609.17Z" transform="translate(-140.44 -68.52)"/><path class="cls-2" d="M270,266.23c-9.62,30.81-35.17,48.45-47,48.5A168.32,168.32,0,0,1,221.49,273c3.48-42.19,18.58-74.93,28.37-95.3,5.39,2.59,13.13,8.91,18.83,24.33C278.35,228.14,278.54,238.69,270,266.23Z" transform="translate(-140.44 -68.52)"/><path class="cls-3" d="M541.66,109.63C529.19,134,489.67,139,475.6,139c-15.16,0-34.36-3.79-59.62-21.22-15.05-10.38-23.56-19.87-28-25.85,14.86-1.78,32.17-2.7,53.61-2.7,59.45,0,96.89,18.79,97.26,19Z" transform="translate(-140.44 -68.52)"/><path class="cls-4" d="M353.54,684c-3.54,11.37-11.62,19.71-22.23,25-7.67,3.84-16.66,4.9-21.05,5.2-7.74-26.34-13.23-58.81-13.37-99.7a484.07,484.07,0,0,1,6.3-79.68,37.29,37.29,0,0,1,27.11,6.69c15.66,11.37,17.43,17.68,17.43,26.27s-7.08,23.75-8.34,26.78-5.83,8.91-4.18,20.77c2.21,15.91,13,25.46,16.06,34.31S357.08,672.6,353.54,684Z" transform="translate(-140.44 -68.52)"/><path class="cls-5" d="M606.34,589.44s-3.93,11.82,3.34,29.3c6.76,16.23,18,24.29,18,24.29,5.18-1,18.34-6.68,22.71-10.84a68.31,68.31,0,0,0,17.21-25.76c2.08-5.8,1.73-15.45.41-19.52s-6.1-10.61-11.37-13c-7.41-3.38-13.1-2.34-18.44-.13C630,577.17,606.34,589.44,606.34,589.44Z" transform="translate(-140.44 -68.52)"/><path class="cls-6" d="M476.23,290.7c-3-.4-3.41-3-2.9-5.05A44.53,44.53,0,0,1,490.2,260.3c10.41-7.7,20.83-10.49,33.27-12.3,10.64-1.54,26.43-1.67,36.23,2.12,2.83,1.09,5.46,2.66,4.37,5.49s-3.27,2.25-6.11,1.16c-6.94-2.69-24.42-3-34.83-1.49-11.11,1.61-19.72,3.89-28.31,10.25a39.63,39.63,0,0,0-13.93,20.92C480.28,289,479.07,291.08,476.23,290.7Z" transform="translate(-140.44 -68.52)"/><path class="cls-6" d="M385.25,290.57c3-.4,3.16-3.38,2.66-5.4a47,47,0,0,0-17.4-25.92c-10.41-7.71-20.4-10.57-32.85-12.38-10.63-1.55-24.49-.44-34.29,3.34-2.83,1.1-6.34,2.6-5.24,5.44s3,2.21,5.87,1.12c6.94-2.69,24.43-3,34.84-1.49,11.11,1.61,19.72,3.89,28.31,10.25a39.63,39.63,0,0,1,13.93,20.92C381.68,289,382.41,291,385.25,290.57Z" transform="translate(-140.44 -68.52)"/><path class="cls-6" d="M465.23,324.8a5.49,5.49,0,0,0-7.66,1.13c-.12.15-3.7,4.65-9.21,4.71s-9.31-2.7-10.51-7.56c-.86-3.48-1-8.79-.88-12.67a10.47,10.47,0,0,0,3.77-7.65c0-3.91-4.05-8.21-10-8.21-5.69,0-9.54,4.36-9.54,8.09a10.84,10.84,0,0,0,4,7.77c.09,3.87,0,9.18-.88,12.67-1.2,4.86-5,7.58-10.51,7.56s-9.09-4.56-9.21-4.71a5.5,5.5,0,0,0-8.83,6.56c.27.36,6.78,9,17.92,9.15H414a21.37,21.37,0,0,0,17.1-7.83,21.35,21.35,0,0,0,17.09,7.83h.29c11.14-.12,17.65-8.79,17.92-9.15A5.5,5.5,0,0,0,465.23,324.8Z" transform="translate(-140.44 -68.52)"/><path class="cls-6" d="M687,607.35a5.06,5.06,0,0,1-1.7-.29,5,5,0,0,1-3-6.4c2.93-8.15.25-13.82.14-14.06a5,5,0,0,1,8.9-4.55c.2.38,4.84,9.57.36,22A5,5,0,0,1,687,607.35Z" transform="translate(-140.44 -68.52)"/><path class="cls-6" d="M703.66,615.12a5,5,0,0,1-4.37-7.42c6.28-11.38,2-25,1.9-25.09a5,5,0,0,1,9.49-3.16c.24.72,5.81,17.79-2.64,33.09A5,5,0,0,1,703.66,615.12Z" transform="translate(-140.44 -68.52)"/><path class="cls-6" d="M163.32,345.65a6.58,6.58,0,0,0,1.69,1.4,6.38,6.38,0,0,0,8.7-2.4c5.46-9.6,13.17-11.71,13.5-11.79a6.34,6.34,0,0,0,4.72-7.65,6.41,6.41,0,0,0-7.7-4.75c-.54.12-13.28,3.24-21.61,17.89A6.39,6.39,0,0,0,163.32,345.65Z" transform="translate(-140.44 -68.52)"/><path class="cls-6" d="M142,335.94a6.26,6.26,0,0,0,2.61,1.82,6.37,6.37,0,0,0,8.21-3.73c5.81-15.53,22.55-22.58,22.72-22.65a6.38,6.38,0,0,0-4.8-11.82c-.9.37-22.06,9.13-29.87,30A6.37,6.37,0,0,0,142,335.94Z" transform="translate(-140.44 -68.52)"/><path class="cls-6" d="M494.48,417.05c-.19-13.55-2.93-16-5.3-17.44s-9-1.54-19.42,2c-10.81,3.68-21.51,11.75-21.51,11.75s-7.39-5.43-11.87.57,1.26,11.31,3.22,12.25,6.32,3.41,6.32,3.41-6.64,4.23-7.52,4.87a7.91,7.91,0,0,0-3.13,3.63,9.3,9.3,0,0,0-.28,3.86c.26,5.81,1.63,17.77,5.4,33,5.4,21.79,8.24,34.3,12.13,35.05s7.29-4,10.8-22.83c0,0,13.54.48,17.62-4.45s.85-7.86-3.22-13.83c-3-4.37-14.64-19.44-20.67-27.21,14.08,8.53,24.16,10.7,30.71,7.6C495,445.85,494.67,430.59,494.48,417.05Z" transform="translate(-140.44 -68.52)"/><path class="cls-6" d="M372.53,417.05c.19-13.55,2.94-16,5.31-17.44s9-1.54,19.42,2c10.81,3.68,21.5,11.75,21.5,11.75s7.39-5.43,11.88.57-1.27,11.31-3.22,12.25-6.32,3.41-6.32,3.41,6.63,4.23,7.52,4.87,2.71,2.27,3.12,3.63c.31,1,.47,1.48.34,4.2-.28,5.92-1.75,17.71-5.45,32.65-5.4,21.79-8.24,34.3-12.13,35.05s-7.29-4-10.8-22.83c0,0-13.55.48-17.62-4.45s-.85-7.86,3.22-13.83c3-4.37,14.63-19.44,20.67-27.21-14.09,8.53-24.17,10.7-30.71,7.6C372.06,445.85,372.34,430.59,372.53,417.05Z" transform="translate(-140.44 -68.52)"/><path class="cls-5" d="M442.34,446.7a5.58,5.58,0,0,0,2.8-.75l19.55-11.3a5.61,5.61,0,1,0-5.62-9.71l-19.54,11.29a5.61,5.61,0,0,0,2.81,10.47Z" transform="translate(-140.44 -68.52)"/><path class="cls-3" d="M461.88,435.36a5.61,5.61,0,0,1-2.81-.75l-19.54-11.3a5.61,5.61,0,1,1,5.61-9.71l19.55,11.3a5.61,5.61,0,0,1-2.81,10.46Z" transform="translate(-140.44 -68.52)"/><path class="cls-7" d="M405.26,435.43a5.59,5.59,0,0,0,2.8-.76l19.55-11.3a5.61,5.61,0,0,0-5.61-9.71L402.45,425a5.61,5.61,0,0,0,2.81,10.47Z" transform="translate(-140.44 -68.52)"/><path class="cls-4" d="M424.8,446.76A5.55,5.55,0,0,1,422,446l-19.55-11.3a5.61,5.61,0,1,1,5.61-9.71l19.55,11.3a5.61,5.61,0,0,1-2.81,10.46Z" transform="translate(-140.44 -68.52)"/><path class="cls-6" d="M492.81,265.08s-7,58.08,24.39,58.08,25.08-74.27,25.08-74.27L517.43,250Z" transform="translate(-140.44 -68.52)"/><path class="cls-6" d="M370.66,265.08s7.24,58.08-25.23,58.08-25.92-74.27-25.92-74.27L345.2,250Z" transform="translate(-140.44 -68.52)"/><ellipse class="cls-8" cx="388.41" cy="193.12" rx="5.62" ry="3.28"/><path class="cls-9" d="M365.2,292.53c-1.64,11.05-7.06,23.64-16.78,24.71-5.58.62-9.4-.8-13.67-5.64-3.51-4-8.15-12.44-8.71-29.81l7.33.07c.32,7.58,1.7,14.66,4.45,19.8,2.42,4.51,6,7.12,10.76,6.82,5.37-.35,8.95-7.06,10.45-16Z" transform="translate(-140.44 -68.52)"/><path class="cls-9" d="M497.58,292.53c1.63,11.05,7,23.64,16.67,24.71,5.55.62,9.34-.8,13.59-5.64,3.48-4,8.09-12.44,8.64-29.81l-7.27.07c-.32,7.58-1.69,14.66-4.43,19.8-2.4,4.51-6,7.12-10.68,6.82-5.34-.35-8.9-7.06-10.39-16Z" transform="translate(-140.44 -68.52)"/><ellipse class="cls-8" cx="219.43" cy="196.53" rx="5.62" ry="3.28"/><path class="cls-10" d="M292.88,131.23S279,107.64,259.47,90.58" transform="translate(-140.44 -68.52)"/><path class="cls-10" d="M292.88,131.23s-15.66-28.68-33.41-40.65" transform="translate(-140.44 -68.52)"/><path class="cls-10" d="M568.38,131.23S584,102.55,601.79,90.58" transform="translate(-140.44 -68.52)"/><path class="cls-11" d="M389.91,807.44c-.64,0-1.25,0-1.84-.06l-1.77-.11-.69,0c-9.71-.48-34.37,1.79-53.43-33a299.58,299.58,0,0,1-25.54-60.65c-8.92-30.37-13.32-63.17-13.45-100.26a484.29,484.29,0,0,1,6.33-80,271.64,271.64,0,0,1,9.93-39.93l.85-2.77-2.44-1.39c-.71-.4-56-11.12-90.67-53.86-21.47-26.49-28.39-74.05-22.73-81.45a8.92,8.92,0,0,1,7.2-3.63,11.1,11.1,0,0,1,4.44,1c5.66,2.51,10.65,6.38,17,11.27,11.1,8.62,26.49,16.67,56.47,30,7.19,3.19,21.12,8.9,35.41,13.87-14.35-5.45-36-14.66-46.51-24.13-14.65-13.16-44.24-37.53-50.53-75.09a170.91,170.91,0,0,1-1.5-42.27C220,220.83,247,187.94,255.71,169.8a.61.61,0,0,0,0-.12l.73-1.49.54-1.13c4.62-9.58,7.4-15.37,7.75-19.54.42-5.12-1.08-12.37-3-21.55-2.7-13-6.05-29.17-4.41-43.3.86-7.38,2.47-10.08,3.37-11a1.93,1.93,0,0,1,1.07-.61c1.64-.35,3.94.59,9.45,3.87l.26.15c.92.55,1.83,1.08,2.69,1.56,8.33,4.63,45.17,29.32,45.53,29.56l2,1.32,2.21-.89a234,234,0,0,1,63.83-16.66h.07c15.23-1.82,32.83-2.71,53.79-2.71,60.06,0,97.8,19,98.17,19.2l2.59,1.33,2.28-1.8c17.57-14,46.08-34.25,54.42-35.41a2,2,0,0,1,1.48.39c4.81,3.65,6.06,18.82,3.33,40.59a65.17,65.17,0,0,1-2.26,9.62c-3.56,12.38-8.42,29.3,8.3,57.3,19.86,33.28,42.13,82,38.15,121.84-4.29,42.88-23,74.6-48.8,91.58-28.26,18.62-74.66,27.58-106,31.54l-6.42.81c14.4,13,33,23.26,37.12,24.84,1.89.74,12.69,5.49,18.87,8.05l1.51.62c48.28,20,74,35.16,81.73,35.42a35.65,35.65,0,0,0,11.85-1.65c3.6-1,5.57-1.56,9.18.08,2.18,1,4.07,4.28,4.8,8.39,1.11,6.17.68,24.67-6.14,31.43-20.31,20.15-56.94,15.66-88.85,10.73-.33,0-5.79-1.14-6.12-1.15l-8.1-2.29a2.43,2.43,0,0,0-2.38,3.26h0a8.92,8.92,0,0,1,5.39,5.51c.13.41.27.81.41,1.22l.59,1.74c4,11.67,9.3,27.34,13.09,49.17a8.75,8.75,0,0,0,6.85,7.19,6,6,0,0,0,1.83.08c7.76-1,24.57-13,26.18-13.67l10.69-5.47c1.79-1.21,21.46-14.31,36.64-17.53,8.61-1.84,16.36.82,23,7.89l.1.11c7.21,7.6,8.38,18.26,3.5,31.68h0c-2.23,6.1-9.77,18.13-17,23.9-10.07,8-23,11.09-23.51,11.22-6.86,1.93-29,4.37-39.61,4-7.3-.26-21-1.56-28.71-3.6-1.57-.41-5.75-2-8.61-3.16a343.16,343.16,0,0,1-3,50.08c-5.22,38.8-36.82,94.5-46.59,105.09-11.07,12-34.48,11-47.11,5.72-5.92-2.5-9.5-5.84-9.36-8.72.32-6,4.12-10.31,7.47-14.08,2.92-3.28,5.67-6.37,5.41-10.21-.09-1.35-.54-3.76-1.27-7.59l0-.13c-2.66-14-16-46.82-14.71-87l.11-3.7-4.27.1c-11.66.25-7.8.34-12.18.27l-3.8-.06.25,3.79c0,.6-1.75,60.31-13.79,91-2.89,7.37,1.17,12.34,4.43,16.33,2.75,3.36,5.12,6.26,4.57,10.67C416.23,802.38,399.84,807.44,389.91,807.44ZM201.66,354.28a4.93,4.93,0,0,0-4,2.06c-3.58,4.68,1.22,50,22.66,76.51,34.17,42.16,88.84,52.5,89.54,52.9l3.83,2.18a2,2,0,0,1,.93,2.32l-1.29,4.21a266.35,266.35,0,0,0-9.85,39.5,480.56,480.56,0,0,0-6.27,79.35c.12,36.71,4.47,69.14,13.29,99.14a295.47,295.47,0,0,0,25.2,59.85c18,32.83,41.36,30.5,50.15,30.94l.69,0c.64,0,1.25.06,1.85.11,9.27.67,24.28-4.63,25-10.12.31-2.48-.77-4.07-3.7-7.65-3.5-4.29-8.8-10.77-5.05-20.32,11.71-29.82,13.56-88.63,13.52-89.22l-.39-6a2,2,0,0,1,2-2.13l6,.1c4.32.07.41,0,12-.26l.61,0,5.76-.14a2,2,0,0,1,2,2.07l-.18,5.81c-1.28,39.69,12,72.2,14.65,86.08l0,.13a81.66,81.66,0,0,1,1.35,8.07c.36,5.51-3.24,9.56-6.41,13.13s-6.23,7-6.47,11.63c.11.49,2,2.74,6.91,4.83,11.55,4.85,32.79,5.91,42.62-4.74,9.55-10.35,40.45-64.87,45.57-102.91a338.82,338.82,0,0,0,2.9-52.48,2,2,0,0,1,.86-1.69,2,2,0,0,1,1.89-.21c2.44,1,9.17,3.65,10.94,4.12,7.31,1.94,20.93,3.22,27.83,3.47,10.13.37,31.92-2,38.48-3.86.21-.05,12.66-3,22-10.48,6-4.76,13.49-16,15.73-22.14,4.32-11.88,3.43-21.15-2.64-27.56l-.11-.12c-2.11-2.23-8.51-9-19.3-6.72-14.81,3.14-35.12,16.86-35.33,17l-.21.12-10.87,5.56-.13.07c-1.27.53-18.82,12.93-27.31,14-5.32.67-10.94-3.77-11.57-4.28a2,2,0,0,1-.71-1.24c-3.76-24.17-9.54-41.18-13.77-53.6L542.3,550l-.67-2a9,9,0,0,0-4.19-5L531,538a1.6,1.6,0,0,1-.55-2.4v0a2,2,0,0,1,1.83-.68l4.08.26c31.15,4.9,87.1,12.66,106.54-6.62,5.71-5.67,5.94-22.71,5-27.88-.63-3.56-2.06-5.24-2.51-5.45-2.28-1-3.17-.8-6.45.12a39.58,39.58,0,0,1-13.07,1.8c-8.4-.29-31.76-14.4-83.12-35.72l-1.51-.63c-6.16-2.55-16.94-7.29-18.78-8C517.74,451,501,442.44,481,424.31a2.14,2.14,0,0,1-.74-1.81,2,2,0,0,1,2.05-1.76h.19c3.35-.44,6.78-.88,10.26-1.31,31-3.92,78.61-9.85,104.52-30.13,23.49-18.38,42.7-47.73,46.86-89.43C648,260.8,626,213.09,606.49,180.49c-17.6-29.49-12.46-47.38-8.71-60.44a65,65,0,0,0,2.15-9c3-24,.46-33.71-1.26-36.3-7.22,2.13-30.47,17.59-51.52,34.36l-3.3,2.61a2,2,0,0,1-2.16.21L538,110c-.36-.18-37.54-18.76-96.34-18.76-20.83,0-38.29.88-53.37,2.69h-.07a230.1,230.1,0,0,0-62.75,16.39l-3.19,1.29a2,2,0,0,1-1.86-.2l-2.86-1.92c-.36-.24-37.11-24.85-45.25-29.38-.89-.5-1.82-1-2.77-1.6l-.19-.11-.08-.06a44.58,44.58,0,0,0-6-3.18,26.13,26.13,0,0,0-1.85,8c-1.58,13.49,1.71,29.31,4.35,42,2,9.49,3.53,17,3.05,22.69-.41,4.91-3.31,11-8.12,20.94l-.56,1.15-.65,1.36-.06.12c-8.59,17.89-35.41,50.39-39,93.8a167.8,167.8,0,0,0,1.46,41.28c6.1,36.42,34.16,62.31,48.69,74.64,18.93,16.08,46.16,23.65,54.19,25.58,15.72,3.79,30.56,8.84,56.46,9.92-28.8.12-45.36-5.18-54.57-6.7a261.39,261.39,0,0,1-49.26-13.83c-30.86-12.49-45.48-21.67-56.7-30.38-6.14-4.76-11-8.49-16.16-10.8A7.07,7.07,0,0,0,201.66,354.28Z" transform="translate(-140.44 -68.52)"/><path class="cls-12" d="M460.19,665.1s-7.52,4.23-27.35,4.23S405,666.68,405,666.68" transform="translate(-140.44 -68.52)"/></svg>