<svg
  width="901"
  height="1128"
  viewBox="0 0 901 1128"
  fill="none"
  xmlns="http://www.w3.org/2000/svg"
>
  <path
    d="M607.944 658.655C607.944 713.055 563.844 757.155 509.444 757.155C455.044 757.155 410.944 713.055 410.944 658.655C410.944 604.255 455.044 560.155 509.444 560.155C563.844 560.155 607.944 604.255 607.944 658.655Z"
    fill="white"
  />
  <path
    d="M376.55 720C376.55 774.676 332.003 819 277.05 819C222.098 819 177.55 774.676 177.55 720C177.55 665.324 222.098 621 277.05 621C332.003 621 376.55 665.324 376.55 720Z"
    fill="white"
  />
  <path
    d="M458.911 662.5C458.911 700.884 427.794 732 389.411 732C351.027 732 319.911 700.884 319.911 662.5C319.911 624.116 351.027 593 389.411 593C427.794 593 458.911 624.116 458.911 662.5Z"
    fill="white"
  />
  <path
    d="M208 662.5C208 700.884 176.883 732 138.5 732C100.116 732 68.9997 700.884 68.9997 662.5C68.9997 624.116 100.116 593 138.5 593C176.883 593 208 624.116 208 662.5Z"
    fill="white"
  />
  <path
    d="M255 614.5C255 640.181 234.181 661 208.5 661C182.818 661 162 640.181 162 614.5C162 588.819 182.818 568 208.5 568C234.181 568 255 588.819 255 614.5Z"
    fill="white"
  />
  <path
    d="M429.999 570.5C429.999 596.181 409.181 617 383.5 617C357.818 617 337 596.181 337 570.5C337 544.819 357.818 524 383.5 524C409.181 524 429.999 544.819 429.999 570.5Z"
    fill="white"
  />
  <path
    d="M695.341 621C690.727 649.346 670.01 678.494 641.392 673.835C612.774 669.176 593.315 642.42 597.93 614.074C602.545 585.729 629.485 566.527 658.103 571.186C686.722 575.845 699.956 592.654 695.341 621Z"
    fill="white"
  />
  <path
    d="M619.677 763.254C615.018 791.872 588.041 811.295 559.423 806.636C530.805 801.977 511.382 775 516.041 746.382C520.7 717.764 547.677 698.341 576.295 703C604.913 707.659 624.336 734.636 619.677 763.254Z"
    fill="white"
  />
  <path
    d="M755.311 649.321C752.25 668.127 734.522 680.891 715.716 677.829C696.91 674.767 684.146 657.04 687.208 638.234C690.27 619.428 707.997 606.664 726.803 609.726C745.61 612.787 758.373 630.515 755.311 649.321Z"
    fill="white"
  />
  <path
    d="M371 592C371 630.108 339.66 661 301 661C262.34 661 231 630.108 231 592C231 553.892 262.34 523 301 523C339.66 523 371 553.892 371 592Z"
    fill="white"
  />
  <path
    d="M637.755 581.044C631.987 616.476 598.587 640.524 563.155 634.755C527.723 628.987 503.676 595.587 509.444 560.155C515.212 524.723 548.612 500.676 584.044 506.444C619.476 512.213 643.523 545.612 637.755 581.044Z"
    fill="white"
  />
  <path
    d="M389.411 732C389.411 754.368 404.554 748.234 382.462 748.234C360.371 748.234 342.462 730.101 342.462 707.734C342.462 685.366 360.371 667.234 382.462 667.234C404.554 667.234 389.411 709.632 389.411 732Z"
    fill="white"
  />
  <path
    d="M701.565 691.5C701.565 713.868 683.433 732 661.065 732C638.698 732 620.565 713.868 620.565 691.5C620.565 669.132 638.698 651 661.065 651C683.433 651 701.565 669.132 701.565 691.5Z"
    fill="white"
  />
  <path
    d="M448.105 742.543C457.908 766.936 441.766 796.391 412.05 808.333C382.335 820.275 350.298 810.182 340.495 785.79C330.692 761.397 346.835 731.942 376.55 720C406.266 708.058 438.302 718.151 448.105 742.543Z"
    fill="white"
  />
  <path
    d="M391.528 528.097C449.156 505.379 465.019 415.233 465.746 373H502.855C480.153 469.117 566.159 526.641 612 543.388L457.015 598C411.174 584.165 333.9 550.816 391.528 528.097Z"
    fill="white"
  />
  <path
    d="M738.137 707.636C738.137 762.312 693.589 806.636 638.637 806.636C583.685 806.636 539.137 762.312 539.137 707.636C539.137 652.959 640.389 621 695.341 621C750.294 621 738.137 652.959 738.137 707.636Z"
    fill="white"
  />
  <path
    d="M579.088 776.829C579.088 831.505 534.54 875.829 479.588 875.829C424.635 875.829 380.088 831.505 380.088 776.829C380.088 722.153 424.635 677.829 479.588 677.829C534.54 677.829 579.088 722.153 579.088 776.829Z"
    fill="white"
  />
  <path
    d="M755.795 842.5C755.795 897.176 711.247 941.5 656.295 941.5C601.343 941.5 556.795 897.176 556.795 842.5C556.795 787.824 601.343 743.5 656.295 743.5C711.247 743.5 755.795 787.824 755.795 842.5Z"
    fill="white"
  />
  <path
    d="M439.995 854.255C439.995 908.931 395.448 953.255 340.495 953.255C285.543 953.255 240.995 908.931 240.995 854.255C240.995 799.579 285.543 755.255 340.495 755.255C395.448 755.255 439.995 799.579 439.995 854.255Z"
    fill="white"
  />
  <path
    d="M607.944 929.046C607.944 983.722 563.396 1028.05 508.444 1028.05C453.492 1028.05 408.944 983.722 408.944 929.046C408.944 874.37 453.492 830.046 508.444 830.046C563.396 830.046 607.944 874.37 607.944 929.046Z"
    fill="white"
  />
  <path
    d="M268 875.829C268 930.505 223.452 974.829 168.5 974.829C113.547 974.829 68.9997 930.505 68.9997 875.829C68.9997 821.153 113.547 776.829 168.5 776.829C223.452 776.829 268 821.153 268 875.829Z"
    fill="white"
  />
  <path
    d="M199.17 781.622C199.17 836.298 154.622 880.622 99.67 880.622C44.7177 880.622 0.170166 836.298 0.170166 781.622C0.170166 726.945 44.7177 682.622 99.67 682.622C154.622 682.622 199.17 726.945 199.17 781.622Z"
    fill="white"
  />
  <path
    d="M367.5 974.829C367.5 1029.51 322.952 1073.83 268 1073.83C213.047 1073.83 168.5 1029.51 168.5 974.829C168.5 920.153 213.047 875.829 268 875.829C322.952 875.829 367.5 920.153 367.5 974.829Z"
    fill="white"
  />
  <path
    d="M738.137 707.636C738.137 762.312 693.589 806.636 638.637 806.636C583.685 806.636 539.137 762.312 539.137 707.636C539.137 652.959 640.389 621 695.341 621C750.294 621 738.137 652.959 738.137 707.636Z"
    fill="white"
  />
  <path
    d="M491.962 1003C491.962 1057.68 447.414 1102 392.462 1102C337.51 1102 292.962 1057.68 292.962 1003C292.962 948.324 337.51 904 392.462 904C447.414 904 491.962 948.324 491.962 1003Z"
    fill="white"
  />
  <path
    d="M656.015 1028.05C656.015 1082.72 611.467 1127.05 556.515 1127.05C501.562 1127.05 457.015 1082.72 457.015 1028.05C457.015 973.37 501.562 929.046 556.515 929.046C611.467 929.046 656.015 973.37 656.015 1028.05Z"
    fill="white"
  />
  <path
    d="M760.566 979.622C760.566 1034.3 716.018 1078.62 661.065 1078.62C606.113 1078.62 561.566 1034.3 561.566 979.622C561.566 924.945 606.113 880.622 661.065 880.622C716.018 880.622 760.566 924.945 760.566 979.622Z"
    fill="white"
  />
  <path
    d="M607.944 929.046C607.944 983.722 563.396 1028.05 508.444 1028.05C453.492 1028.05 408.944 983.722 408.944 929.046C408.944 874.37 453.492 830.046 508.444 830.046C563.396 830.046 607.944 874.37 607.944 929.046Z"
    fill="white"
  />
  <path
    d="M869.5 744.501C869.5 799.177 824.952 843.501 770 843.501C715.048 843.501 670.5 799.177 670.5 744.501C670.5 689.825 715.048 645.501 770 645.501C824.952 645.501 869.5 689.825 869.5 744.501Z"
    fill="white"
  />
  <path
    d="M869.5 744.501C869.5 799.177 824.952 843.501 770 843.501C715.048 843.501 670.5 799.177 670.5 744.501C670.5 689.825 715.048 645.501 770 645.501C824.952 645.501 869.5 689.825 869.5 744.501Z"
    fill="white"
  />
  <path
    d="M900.565 904C900.565 958.676 856.018 1003 801.065 1003C746.113 1003 701.565 958.676 701.565 904C701.565 849.324 746.113 805 801.065 805C856.018 805 900.565 849.324 900.565 904Z"
    fill="white"
  />
  <path
    d="M900.565 904C900.565 958.676 856.018 1003 801.065 1003C746.113 1003 701.565 958.676 701.565 904C701.565 849.324 746.113 805 801.065 805C856.018 805 900.565 849.324 900.565 904Z"
    fill="white"
  />
  <path
    d="M474.5 625C474.5 663.384 443.384 694.5 405 694.5C366.616 694.5 335.5 663.384 335.5 625C335.5 586.616 366.616 555.5 405 555.5C443.384 555.5 474.5 586.616 474.5 625Z"
    fill="white"
  />
  <path
    d="M604.514 172.631L544.946 146.036V260.598L623 309.696L604.514 172.631Z"
    fill="#4367FF"
  />
  <path
    d="M357.697 172.631L411.5 146.036V260.598L341 309.696L357.697 172.631Z"
    fill="#4367FF"
  />
  <path
    d="M479.482 309.816V285.357V260.898V0C479.482 0 441.44 16.1995 415.571 93.1474C400.689 137.414 393.938 178.746 390.148 222.171C387.712 250.077 389.069 279.242 391.034 309.816H408.724V326.122H429.458V342.429H479.482V326.122V309.816Z"
    fill="#DCDFD9"
  />
  <path
    d="M479.482 309.816V285.357V260.898L479.482 0C479.482 0 518.581 16.1995 545.168 93.1474C560.464 137.414 567.402 178.746 571.298 222.171C573.801 250.077 572.407 279.242 570.387 309.816H552.206V326.122H530.896V342.429H479.482V326.122V309.816Z"
    fill="#F9F1F9"
  />
  <path
    d="M459.402 367.607C472.778 367.607 482.038 367.607 504.674 367.607C529.587 367.607 510.848 439.381 504.674 439.381C498.501 439.381 482.038 468.321 482.038 468.321C482.038 468.321 468.663 439.381 459.402 439.381C450.142 439.381 436.291 367.607 459.402 367.607Z"
    fill="#E36018"
  />
  <path
    d="M463.333 367.607C474.382 367.607 482.032 367.607 500.731 367.607C521.311 367.607 505.831 421.437 500.731 421.437C495.631 421.437 482.032 443.143 482.032 443.143C482.032 443.143 470.982 421.437 463.333 421.437C455.683 421.437 444.24 367.607 463.333 367.607Z"
    fill="#FFAE44"
  />
  <path
    d="M469.227 367.607C476.788 367.607 482.022 367.607 494.816 367.607C508.897 367.607 498.305 403.494 494.816 403.494C491.326 403.494 482.022 417.964 482.022 417.964C482.022 417.964 474.461 403.494 469.227 403.494C463.993 403.494 456.164 367.607 469.227 367.607Z"
    fill="#FCE25E"
  />
  <path
    d="M439.196 342.429H522.286L517.25 372.643H446.75L439.196 342.429Z"
    fill="#5B6575"
  />
  <circle
    cx="480"
    cy="85.6071"
    r="35.2857"
    fill="#00D5CC"
    stroke="#5B6575"
    stroke-width="10"
  />
  <path
    d="M461.375 175.525L479 148.554L496.625 175.525L479 347.464L461.375 175.525Z"
    fill="url(#paint0_linear_15_16)"
  />
  <defs>
    <linearGradient
      id="paint0_linear_15_16"
      x1="479"
      y1="148.554"
      x2="479"
      y2="347.464"
      gradientUnits="userSpaceOnUse"
    >
      <stop stop-color="#4367FF" />
      <stop offset="1" stop-color="#4367FF" stop-opacity="0" />
    </linearGradient>
  </defs>
</svg>
