<svg width="180" height="150" viewBox="0 0 180 150" fill="none" xmlns="http://www.w3.org/2000/svg">
<path d="M0 138C0 144.63 5.29996 150 11.83 150H12C5.37 150 0 144.63 0 138Z" fill="#FBBC05"/>
<path d="M101.66 45V76.33L142.99 42.26V12C142.99 5.37 137.69 0 131.16 0H41.62L41.54 45H101.66Z" fill="#FBBC05"/>
<path d="M101.66 107.67H41.44L41.37 150H131.16C137.7 150 142.99 144.63 142.99 138V110.68L101.66 76.34V107.67Z" fill="#34A853"/>
<path d="M41.62 0L0 45H41.55L41.62 0Z" fill="#EA4335"/>
<path d="M0 107.67V138C0 144.63 5.37 150 12 150H41.37L41.44 107.67H0Z" fill="#1967D2"/>
<path d="M41.55 45H0V107.67H41.44L41.55 45Z" fill="#4285F4"/>
<path d="M179.33 127.33V24.33C177 10.66 162.33 26.33 162.33 26.33L143 42.26V110.67L170.67 133.66C180.66 135 179.33 127.33 179.33 127.33Z" fill="#34A853"/>
<path d="M101.66 76.33L143 110.68V42.27L101.66 76.33Z" fill="#188038"/>
</svg>
