<svg width="492" height="492" viewBox="0 0 492 492" fill="none" xmlns="http://www.w3.org/2000/svg">
<path d="M255.266 416.97C333.025 416.97 396.06 413.739 396.06 409.754C396.06 405.769 333.025 402.538 255.266 402.538C177.508 402.538 114.472 405.769 114.472 409.754C114.472 413.739 177.508 416.97 255.266 416.97Z" fill="#E3F0FF"/>
<path d="M316.93 408.278C316.93 408.278 314.224 403.686 320.046 401.472C325.868 399.258 339.07 397.864 337.758 393.354C336.446 388.844 331.936 380.726 343.252 373.018C354.486 365.392 352.272 362.112 353.83 362.85C355.388 363.588 359.16 368.098 358.504 372.362C357.848 376.626 354.732 377.692 356.208 379.086C357.684 380.398 362.686 375.56 362.686 371.05C362.686 366.54 362.932 363.26 366.212 365.146C369.41 367.032 369 369.738 371.296 367.688C373.592 365.638 375.068 361.538 374.084 355.47C373.182 349.402 376.134 344.892 380.398 344.728C384.662 344.564 393.518 352.518 394.256 364.572C394.912 376.626 387.45 386.466 388.516 389.5C389.582 392.616 394.256 391.14 396.716 386.712C399.094 382.284 404.998 389.254 403.44 395.322C401.8 401.39 400.324 408.032 396.716 409.262C393.108 410.492 329.066 409.508 324.228 409.508C319.308 409.508 317.832 409.59 316.93 408.278Z" fill="#FF8D76"/>
<path d="M332.1 406.228C335.462 406.146 345.548 406.228 344.318 400.57C343.088 394.912 340.956 392.534 344.482 387.696C348.008 382.858 351.862 385.81 352.026 388.27C352.19 390.648 351.206 395.486 355.388 394.83C359.57 394.174 359.652 382.858 363.178 381.956C366.704 381.054 367.77 384.498 368.262 387.86C368.836 391.222 372.936 387.614 374.576 383.596C376.216 379.578 376.052 374.084 379.824 372.444C383.596 370.804 385.482 380.234 383.842 388.844C382.202 397.454 380.89 401.718 382.94 402.538C384.99 403.358 389.008 401.308 390.894 404.424C392.78 407.54 389.992 409.672 382.284 409.672C374.658 409.672 335.544 409.672 329.394 409.672C323.08 409.59 324.392 406.392 332.1 406.228Z" fill="#FEC272"/>
<path d="M108.896 275.848C106.436 280.194 99.7942 277.98 96.6782 273.06C93.5622 268.058 88.8882 271.01 89.9542 280.85C91.0202 290.608 94.9562 297.086 102.008 301.76C109.06 306.434 117.014 308.32 115.128 311.518C113.242 314.716 110.29 322.014 120.868 325.704C131.446 329.476 146.78 327.754 154.652 318.898C162.606 310.042 162.606 290.526 158.916 280.03C155.308 269.534 148.01 262.892 145.632 258.054C143.254 253.216 138.826 256.578 139.564 261.088C140.384 265.598 141.86 268.222 138.662 268.304C135.464 268.386 133.332 257.398 123.738 255.348C114.144 253.216 112.586 258.956 106.518 255.676C100.45 252.314 98.2362 252.642 97.8262 257.89C97.4162 263.22 101.434 269.042 104.878 269.944C110.044 271.256 110.536 272.896 108.896 275.848Z" fill="#FEC272"/>
<path d="M123 280.932C123.902 285.606 120.048 290.69 113.324 287.738C106.6 284.786 104.222 287.164 107.666 293.396C111.11 299.628 118.818 305.368 123 307.5C127.182 309.632 124.312 312.748 124.886 315.946C125.46 319.144 134.808 323.982 144.238 313.65C153.668 303.318 153.75 290.198 151.044 280.604C148.338 271.092 144.73 272.568 144.73 275.766C144.73 278.964 145.14 285.278 142.68 284.622C140.302 283.966 136.94 279.292 133.824 273.88C128.494 264.614 115.456 257.07 113.734 264.204C112.504 269.206 121.688 273.798 123 280.932Z" fill="#FF8D76"/>
<path d="M313.158 250.346C301.35 240.752 290.608 223.532 288.23 192.618C286.508 170.232 293.97 160.31 301.678 156.62C309.304 153.012 309.304 149.404 312.748 150.388C316.192 151.372 315.372 159.244 312.174 163.098C308.976 166.952 308.566 172.938 313.404 173.348C318.242 173.758 318.816 165.066 319.636 157.03C320.456 148.994 322.424 145.796 331.936 141.368C341.448 136.94 346.45 133.742 348.418 127.264C350.468 120.786 352.436 121.196 356.044 123C359.652 124.804 360.882 133.25 357.848 136.448C354.814 139.646 352.436 142.106 352.846 144.894C353.256 147.682 354.65 143.254 362.932 139.236C371.214 135.218 374.576 123.164 375.642 116.932C376.708 110.7 378.84 109.06 384.662 111.93C390.484 114.718 397.946 125.788 395.896 140.876C393.846 155.964 383.596 166.214 382.038 174.332C380.398 182.368 385.482 184.172 390.73 181.138C395.978 178.104 393.108 169.084 395.978 164.82C398.766 160.556 407.458 169.658 410.082 184.91C412.706 200.162 416.724 224.434 394.01 247.148C370.558 270.436 336.2 269.124 313.158 250.346Z" fill="#FEC272"/>
<path d="M321.932 178.76C327.672 169.412 333.576 169.74 333.822 173.102C333.986 176.546 329.23 181.384 331.608 183.762C333.986 186.14 337.266 181.958 338.25 175.89C339.234 169.822 345.056 166.46 351.124 163.59C357.192 160.802 359.816 154.734 362.768 154.57C365.72 154.406 366.786 160.802 364.818 164.656C362.768 168.51 355.552 170.478 355.552 175.89C355.552 181.302 360.882 181.63 363.178 177.12C365.474 172.61 364.9 170.15 369.738 169.74C374.576 169.33 374.166 180.892 370.968 185.156C367.77 189.42 362.276 192.782 364.818 196.964C367.36 201.146 372.034 196.964 374.576 194.176C377.118 191.388 382.202 194.422 383.022 199.834C383.842 205.164 373.346 214.348 374.002 219.022C374.658 223.696 378.84 222.548 381.218 219.268C383.596 216.07 386.712 220.17 385.892 225.582C385.072 230.994 370.476 248.952 344.4 242.064C306.516 232.142 311.682 195.57 321.932 178.76Z" fill="#FF8D76"/>
<path d="M185.648 167.608L270.6 93.562C271.42 92.824 272.65 92.906 273.388 93.726C274.126 94.546 274.044 95.858 273.224 96.596L189.666 173.02L185.648 167.608Z" fill="#E1ECFF"/>
<path d="M177.694 182.696L131.118 80.032C130.626 79.048 131.118 77.818 132.102 77.408C133.086 76.916 134.316 77.326 134.808 78.392L184.008 180.482L177.694 182.696Z" fill="#E1ECFF"/>
<path d="M178.186 190.814C186.654 190.814 193.52 183.949 193.52 175.48C193.52 167.011 186.654 160.146 178.186 160.146C169.717 160.146 162.852 167.011 162.852 175.48C162.852 183.949 169.717 190.814 178.186 190.814Z" fill="#4167FF"/>
<path d="M177.529 170.478C181.605 170.478 184.909 168.422 184.909 165.886C184.909 163.35 181.605 161.294 177.529 161.294C173.454 161.294 170.149 163.35 170.149 165.886C170.149 168.422 173.454 170.478 177.529 170.478Z" fill="#273D7A"/>
<path d="M298.89 364.408C298.644 371.378 290.526 371.624 286.508 363.588C284.622 359.734 281.506 353.174 278.8 347.434C275.848 341.12 273.388 335.708 273.388 335.708L296.758 338.086C296.758 338.086 297.25 342.186 297.824 347.352C298.48 353.256 299.054 360.636 298.89 364.408Z" fill="#1C3177"/>
<path d="M297.824 347.352C296.676 347.598 295.364 347.844 293.97 348.09C289.132 348.91 283.556 348.336 278.882 347.434C275.93 341.12 273.47 335.708 273.47 335.708L296.84 338.086C296.758 338.086 297.332 342.186 297.824 347.352Z" fill="#072359"/>
<path d="M140.384 337.676C137.924 344.236 145.222 347.598 152.028 341.776C155.308 338.988 160.72 334.15 165.476 329.886C170.642 325.212 175.07 321.194 175.07 321.194L152.602 314.224C152.602 314.224 150.552 317.832 148.01 322.342C145.222 327.672 141.696 334.15 140.384 337.676Z" fill="#1C3177"/>
<path d="M148.091 322.424C149.075 323.162 150.141 323.9 151.371 324.638C155.471 327.262 160.801 328.902 165.557 329.968C170.723 325.294 175.151 321.276 175.151 321.276L152.683 314.306C152.683 314.306 150.633 317.914 148.091 322.424Z" fill="#072359"/>
<path d="M358.504 249.28C355.388 273.798 352.6 299.792 347.27 317.75C346.614 320.046 345.876 322.178 345.056 324.146C338.25 341.858 325.868 338.25 309.878 339.726C293.888 341.202 289.05 341.038 289.05 341.038L293.15 316.11L312.666 198.358L350.96 201.72C350.96 201.72 353.01 203.196 354.732 205.984C356.536 208.854 362.03 221.564 358.504 249.28Z" fill="#4167FF"/>
<path d="M347.27 317.75C346.614 320.046 345.876 322.178 345.056 324.146C338.25 341.858 325.868 338.25 309.878 339.726C293.888 341.202 289.05 341.038 289.05 341.038L293.15 316.11L347.27 317.75Z" fill="#072359"/>
<path d="M147.19 180.892C147.19 180.892 157.194 175.644 168.51 175.234C179.826 174.824 269.37 183.762 298.644 186.96C327.918 190.158 340.546 194.176 346.45 197.292C352.354 200.408 354.732 205.984 354.732 205.984L307.746 201.72L147.19 180.892Z" fill="#923DFD"/>
<path d="M129.314 289.542L135.3 197.21C135.956 186.55 145.468 178.596 156.046 179.826L308.238 197.046C317.75 198.112 324.556 206.64 323.654 216.07L313.65 316.848C312.092 332.346 297.742 343.252 282.408 340.71L152.274 318.652C138.334 316.274 128.412 303.646 129.314 289.542Z" fill="#273D7A"/>
<path d="M271.83 319.964L282.818 213.446C283.31 208.936 287.328 205.656 291.838 206.148L310.944 208.28C315.454 208.772 318.652 212.872 318.16 217.3L305.86 323.9C305.368 328.41 301.186 331.608 296.676 331.034L278.964 328.82C274.536 328.328 271.338 324.392 271.83 319.964Z" fill="#FEC272"/>
<path d="M313.322 229.354C313.322 232.798 312.092 235.914 310.124 238.374C308.73 240.014 307.09 241.408 305.122 242.31C303.318 243.212 301.268 243.622 299.054 243.622C291.182 243.622 284.786 237.226 284.786 229.354C284.786 226.074 285.934 223.04 287.738 220.662C289.05 218.94 290.69 217.546 292.658 216.562C294.544 215.578 296.758 215.086 299.054 215.086C306.844 215.086 313.322 221.482 313.322 229.354Z" fill="#F9A95A"/>
<path d="M312.584 226.976C312.584 230.092 311.518 232.962 309.632 235.258C308.402 236.816 306.844 238.046 305.04 238.866C303.318 239.686 301.514 240.096 299.464 240.096C292.248 240.096 286.344 234.274 286.344 226.976C286.344 223.942 287.328 221.236 289.05 219.022C290.28 217.464 291.756 216.152 293.56 215.332C295.364 214.43 297.332 213.938 299.382 213.938C306.762 213.856 312.584 219.76 312.584 226.976Z" fill="#99ADF9"/>
<path d="M309.713 235.258C308.483 236.816 306.925 238.046 305.121 238.866L289.213 219.022C290.443 217.464 291.919 216.152 293.723 215.332L309.713 235.258Z" fill="#C5DFFF"/>
<path d="M300.448 276.75C297.332 277.98 294.134 278.062 291.182 277.16C289.214 276.586 287.328 275.52 285.77 274.044C284.294 272.732 283.146 271.01 282.326 269.124C279.456 261.99 282.818 253.872 289.952 251.002C292.904 249.772 296.02 249.69 298.89 250.51C300.858 251.084 302.744 252.068 304.384 253.462C305.942 254.856 307.254 256.578 308.074 258.628C311.026 265.762 307.582 273.88 300.448 276.75Z" fill="#F9A95A"/>
<path d="M300.448 273.388C297.578 274.536 294.462 274.618 291.674 273.798C289.788 273.224 288.066 272.24 286.59 270.928C285.196 269.698 284.13 268.14 283.392 266.254C280.686 259.53 283.884 251.904 290.526 249.198C293.314 248.05 296.266 247.968 298.972 248.706C300.858 249.198 302.58 250.182 304.138 251.494C305.614 252.806 306.844 254.446 307.664 256.414C310.37 263.056 307.172 270.682 300.448 273.388Z" fill="#99ADF9"/>
<path d="M304.138 251.412L291.674 273.798C289.788 273.224 288.066 272.24 286.59 270.928L298.972 248.706C300.94 249.198 302.662 250.1 304.138 251.412Z" fill="#C5DFFF"/>
<path d="M300.939 292.084L283.719 289.46C282.571 289.296 281.751 288.23 281.915 287.082C282.079 285.934 283.063 285.114 284.211 285.278L301.431 287.902C302.579 288.066 303.399 289.132 303.235 290.28C303.071 291.428 302.005 292.248 300.939 292.084Z" fill="#4167FF"/>
<path d="M299.792 301.596L282.572 298.972C281.424 298.808 280.604 297.742 280.768 296.594C280.932 295.446 281.916 294.626 283.064 294.79L300.284 297.414C301.432 297.578 302.252 298.644 302.088 299.792C302.006 301.022 300.94 301.76 299.792 301.596Z" fill="#4167FF"/>
<path d="M298.726 311.19L281.506 308.566C280.358 308.402 279.538 307.336 279.702 306.188C279.866 305.04 280.85 304.22 281.998 304.384L299.218 307.008C300.366 307.172 301.186 308.238 301.022 309.386C300.94 310.534 299.874 311.354 298.726 311.19Z" fill="#4167FF"/>
<path d="M297.66 320.702L280.44 318.078C279.292 317.914 278.472 316.848 278.636 315.7C278.8 314.552 279.784 313.732 280.932 313.896L298.152 316.52C299.3 316.684 300.12 317.75 299.956 318.898C299.874 320.046 298.808 320.866 297.66 320.702Z" fill="#4167FF"/>
<path d="M275.848 216.562L275.356 221.728L266.664 313.404C266.336 316.52 265.024 319.308 262.974 321.358C260.104 324.31 255.922 325.868 251.494 325.13L153.504 309.632C143.254 307.992 135.874 298.808 136.53 288.394L141.778 206.23L141.942 203.524L142.27 199.014C142.68 192.782 148.256 188.108 154.488 188.846L264.368 202.048C271.42 203.032 276.504 209.428 275.848 216.562Z" fill="#F8FBFF"/>
<path d="M275.848 216.562L275.356 221.728L141.942 203.606L142.27 199.096C142.68 192.864 148.256 188.19 154.488 188.928L264.368 202.13C271.42 203.032 276.504 209.428 275.848 216.562Z" fill="#C5DFFF"/>
<path d="M155.308 198.276C155.062 199.916 153.504 201.146 151.782 200.9C150.06 200.654 148.748 199.178 148.994 197.538C149.24 195.898 150.798 194.668 152.52 194.914C154.242 195.16 155.472 196.636 155.308 198.276Z" fill="white"/>
<path d="M168.264 199.834C168.018 201.474 166.46 202.704 164.738 202.458C163.016 202.212 161.704 200.736 161.95 199.096C162.196 197.456 163.754 196.226 165.476 196.472C167.198 196.718 168.428 198.194 168.264 199.834Z" fill="white"/>
<path d="M181.138 201.392C180.892 203.032 179.334 204.262 177.612 204.016C175.89 203.77 174.578 202.294 174.824 200.654C175.07 199.014 176.628 197.784 178.35 198.03C180.154 198.194 181.384 199.752 181.138 201.392Z" fill="white"/>
<path d="M262.974 321.358C260.104 324.31 255.922 325.868 251.494 325.13L153.504 309.632C143.254 307.992 135.874 298.808 136.53 288.394L141.778 206.23C143.5 234.684 139.154 266.418 154.98 284.458C178.186 310.944 199.26 310.78 262.974 321.358Z" fill="#E1ECFF"/>
<path d="M183.926 237.308L179.826 236.652C178.76 236.488 177.858 237.144 177.776 238.21L176.546 249.444L171.38 248.87C170.478 248.706 169.904 247.804 170.232 246.984L173.922 237.964C174.414 236.816 173.594 235.504 172.364 235.34L169.002 234.766C168.182 234.602 167.362 235.094 167.034 235.832L161.212 250.264C160.556 251.904 161.622 253.79 163.426 254.118L175.808 256.25L173.594 276.258C173.512 277.324 174.25 278.308 175.316 278.472L179.17 279.046C180.154 279.21 181.056 278.554 181.22 277.488L185.648 239.604C185.73 238.538 184.992 237.472 183.926 237.308Z" fill="#99ADF9"/>
<path d="M242.392 247.066L238.21 246.328C237.144 246.164 236.16 246.902 236.078 247.886L234.766 259.53L229.354 258.956C228.452 258.792 227.878 257.808 228.206 256.988L231.978 247.64C232.47 246.492 231.65 245.098 230.338 244.852L226.894 244.278C225.992 244.114 225.172 244.606 224.844 245.344L218.776 260.268C218.12 261.99 219.268 263.958 221.072 264.286L233.864 266.418L231.568 287.164C231.486 288.23 232.224 289.296 233.372 289.46L237.39 290.034C238.456 290.198 239.358 289.46 239.522 288.476L244.114 249.198C244.278 248.214 243.458 247.23 242.392 247.066Z" fill="#99ADF9"/>
<path d="M203.934 239.932C195.816 239.194 191.06 243.786 189.092 257.316C186.632 274.126 191.06 280.932 199.26 282.818C210.412 285.442 212.38 275.848 214.594 261.662C216.808 247.476 212.052 240.67 203.934 239.932ZM207.952 261.334C206.886 271.256 203.852 276.914 200.162 276.012C196.226 275.028 194.75 270.436 195.898 258.71C196.8 249.28 199.096 246.082 202.95 246.41C206.804 246.82 209.018 251.412 207.952 261.334Z" fill="#99ADF9"/>
<path d="M310.944 133.66C307.008 133.578 305.286 124.148 308.976 121.77C312.666 119.392 315.29 124.23 315.372 127.756C315.454 131.282 314.47 133.824 310.944 133.66Z" fill="#FF8D76"/>
<path d="M356.454 106.354C352.846 106.272 351.288 97.7441 354.732 95.6121C358.094 93.4801 360.39 97.8261 360.472 101.024C360.554 104.222 359.652 106.436 356.454 106.354Z" fill="#FEC272"/>
<path d="M392.452 88.97C388.762 88.888 387.122 80.114 390.648 77.9C394.174 75.686 396.47 80.196 396.634 83.476C396.798 86.756 395.732 89.134 392.452 88.97Z" fill="#FF8D76"/>
<path d="M422.382 156.62C419.266 155.8 419.676 147.846 423.12 146.698C426.564 145.55 427.712 149.814 427.138 152.684C426.564 155.554 425.252 157.358 422.382 156.62Z" fill="#FEC272"/>
<path d="M108.158 239.768C104.304 239.194 103.566 229.764 107.584 227.878C111.602 225.992 113.488 230.994 113.242 234.438C112.914 237.964 111.684 240.178 108.158 239.768Z" fill="#FEC272"/>
<path d="M97.0881 209.428C94.0542 209.018 93.5622 201.638 96.5961 200.162C99.6301 198.686 101.188 202.54 100.942 205.246C100.778 208.034 99.7941 209.838 97.0881 209.428Z" fill="#FF8D76"/>
<path d="M74.8663 258.136C69.9463 257.48 69.0443 245.344 74.1283 242.966C79.1303 240.588 81.6723 246.902 81.3443 251.412C80.9343 255.84 79.3763 258.71 74.8663 258.136Z" fill="#FEC272"/>
<path d="M126.444 176.792L87.4119 145.714L80.3599 158.588L126.444 176.792Z" fill="#FEC272"/>
<path d="M128.33 168.018L90.4458 131.036L104.632 121.852L128.33 168.018Z" fill="#FEC272"/>
<path d="M122.754 123.164L136.038 164.492L134.726 121.934L122.754 123.164Z" fill="#FEC272"/>
</svg>
