<svg width="221" height="295" viewBox="0 0 221 295" fill="none" xmlns="http://www.w3.org/2000/svg">
<path d="M36.8333 0C16.5174 0 0 16.5361 0 36.875V258.125C0 278.464 16.5174 295 36.8333 295H184.167C204.483 295 221 278.464 221 258.125V100.187C221 95.7692 217.418 92.1875 213 92.1875H147.333C137.147 92.1875 128.917 83.9482 128.917 73.75V8C128.917 3.58172 125.335 0 120.917 0H36.8333ZM160.993 13.6755C155.955 8.63141 147.333 12.1997 147.333 19.3292V65.75C147.333 70.1683 150.915 73.75 155.333 73.75H201.702C208.827 73.75 212.397 65.1374 207.362 60.0963L160.993 13.6755ZM64.4583 147.5H156.542C161.606 147.5 165.75 151.648 165.75 156.719C165.75 161.789 161.606 165.938 156.542 165.938H64.4583C59.3937 165.938 55.25 161.789 55.25 156.719C55.25 151.648 59.3937 147.5 64.4583 147.5ZM64.4583 184.375H156.542C161.606 184.375 165.75 188.523 165.75 193.594C165.75 198.664 161.606 202.812 156.542 202.812H64.4583C59.3937 202.812 55.25 198.664 55.25 193.594C55.25 188.523 59.3937 184.375 64.4583 184.375ZM64.4583 221.25H156.542C161.606 221.25 165.75 225.398 165.75 230.469C165.75 235.539 161.606 239.688 156.542 239.688H64.4583C59.3937 239.688 55.25 235.539 55.25 230.469C55.25 225.398 59.3937 221.25 64.4583 221.25Z" fill="#A18BFF" fill-opacity="0.9"/>
</svg>
