<svg width="544" height="544" viewBox="0 0 544 544" fill="none" xmlns="http://www.w3.org/2000/svg">
<path d="M16 98.5602V444.948C16 459.752 28.0016 471.754 42.8063 471.754H501.194C515.998 471.754 528 459.752 528 444.948V153.227C528 138.422 515.998 126.421 501.194 126.421H260.603C250.182 126.421 240.743 120.338 235.291 111.456C225.357 95.2712 207.444 71.7539 187.225 71.7539H42.7644C27.9597 71.7539 16 83.7555 16 98.5602Z" fill="#7FE776"/>
<path d="M528 163.561V435.948C528 450.752 515.998 462.754 501.194 462.754H42.8063C28.0016 462.754 16 450.752 16 435.948V190.699C16 175.895 27.962 163.893 42.7667 163.893H178.178C223.749 163.893 217.382 136.752 248.544 136.754C333.567 136.758 449.546 136.756 501.239 136.755C516.044 136.754 528 148.756 528 163.561Z" fill="url(#paint0_linear_42_2199)"/>
<g clip-path="url(#clip0_42_2199)">
<path d="M305.833 238C285.517 238 269 254.536 269 274.875V496.125C269 516.464 285.517 533 305.833 533H453.167C473.483 533 490 516.464 490 496.125V338.187C490 333.769 486.418 330.188 482 330.188H416.333C406.147 330.188 397.917 321.948 397.917 311.75V246C397.917 241.582 394.335 238 389.917 238H305.833ZM429.993 251.676C424.955 246.631 416.333 250.2 416.333 257.329V303.75C416.333 308.168 419.915 311.75 424.333 311.75H470.702C477.827 311.75 481.397 303.137 476.362 298.096L429.993 251.676ZM333.458 385.5H425.542C430.606 385.5 434.75 389.648 434.75 394.719C434.75 399.789 430.606 403.938 425.542 403.938H333.458C328.394 403.938 324.25 399.789 324.25 394.719C324.25 389.648 328.394 385.5 333.458 385.5ZM333.458 422.375H425.542C430.606 422.375 434.75 426.523 434.75 431.594C434.75 436.664 430.606 440.812 425.542 440.812H333.458C328.394 440.812 324.25 436.664 324.25 431.594C324.25 426.523 328.394 422.375 333.458 422.375ZM333.458 459.25H425.542C430.606 459.25 434.75 463.398 434.75 468.469C434.75 473.539 430.606 477.688 425.542 477.688H333.458C328.394 477.688 324.25 473.539 324.25 468.469C324.25 463.398 328.394 459.25 333.458 459.25Z" fill="#7FE676"/>
</g>
<defs>
<linearGradient id="paint0_linear_42_2199" x1="528" y1="136.754" x2="27.1538" y2="479.073" gradientUnits="userSpaceOnUse">
<stop offset="0.234375" stop-color="#A2FFD2"/>
<stop offset="1" stop-color="#7FE776"/>
</linearGradient>
<clipPath id="clip0_42_2199">
<rect x="16" y="136.754" width="512" height="326" rx="25.466" fill="white"/>
</clipPath>
</defs>
</svg>
