<svg width="733" height="829" viewBox="0 0 733 829" fill="none" xmlns="http://www.w3.org/2000/svg">
<path d="M538.944 658.655C538.944 713.055 494.844 757.155 440.444 757.155C386.044 757.155 341.944 713.055 341.944 658.655C341.944 604.255 386.044 560.155 440.444 560.155C494.844 560.155 538.944 604.255 538.944 658.655Z" fill="white"/>
<path d="M307.55 720C307.55 774.676 263.003 819 208.05 819C153.098 819 108.55 774.676 108.55 720C108.55 665.324 153.098 621 208.05 621C263.003 621 307.55 665.324 307.55 720Z" fill="white"/>
<path d="M422.962 638.234C422.962 676.618 391.846 707.734 353.462 707.734C315.078 707.734 283.962 676.618 283.962 638.234C283.962 599.85 315.078 568.734 353.462 568.734C391.846 568.734 422.962 599.85 422.962 638.234Z" fill="white"/>
<path d="M139 662.5C139 700.884 107.884 732 69.4998 732C31.116 732 -0.000244141 700.884 -0.000244141 662.5C-0.000244141 624.116 31.116 593 69.4998 593C107.884 593 139 624.116 139 662.5Z" fill="white"/>
<path d="M186 614.5C186 640.181 165.181 661 139.5 661C113.819 661 92.9998 640.181 92.9998 614.5C92.9998 588.819 113.819 568 139.5 568C165.181 568 186 588.819 186 614.5Z" fill="white"/>
<path d="M361 570.5C361 596.181 340.181 617 314.5 617C288.818 617 268 596.181 268 570.5C268 544.819 288.818 524 314.5 524C340.181 524 361 544.819 361 570.5Z" fill="white"/>
<path d="M632.565 630.946C627.951 659.292 601.01 678.494 572.392 673.835C543.774 669.176 524.315 642.42 528.93 614.074C533.545 585.729 560.485 566.527 589.103 571.186C617.722 575.845 637.18 602.6 632.565 630.946Z" fill="white"/>
<path d="M550.677 763.254C546.018 791.872 519.041 811.295 490.423 806.636C461.805 801.977 442.382 775 447.041 746.382C451.7 717.764 478.677 698.341 507.295 703C535.913 707.659 555.336 734.636 550.677 763.254Z" fill="white"/>
<path d="M686.311 649.321C683.25 668.127 665.522 680.891 646.716 677.829C627.91 674.767 615.146 657.04 618.208 638.234C621.27 619.428 638.997 606.664 657.803 609.726C676.61 612.787 689.373 630.515 686.311 649.321Z" fill="white"/>
<path d="M302 592C302 630.108 270.66 661 232 661C193.34 661 162 630.108 162 592C162 553.892 193.34 523 232 523C270.66 523 302 553.892 302 592Z" fill="white"/>
<path d="M568.755 581.044C562.987 616.476 529.587 640.524 494.155 634.755C458.723 628.987 434.676 595.587 440.444 560.155C446.212 524.723 479.612 500.676 515.044 506.444C550.476 512.213 574.523 545.612 568.755 581.044Z" fill="white"/>
<path d="M353.462 707.734C353.462 730.101 335.554 748.234 313.462 748.234C291.371 748.234 273.462 730.101 273.462 707.734C273.462 685.366 291.371 667.234 313.462 667.234C335.554 667.234 353.462 685.366 353.462 707.734Z" fill="white"/>
<path d="M632.565 691.5C632.565 713.868 614.433 732 592.065 732C569.698 732 551.565 713.868 551.565 691.5C551.565 669.132 569.698 651 592.065 651C614.433 651 632.565 669.132 632.565 691.5Z" fill="white"/>
<path d="M587.295 703C587.295 725.368 569.386 743.5 547.295 743.5C525.204 743.5 507.295 725.368 507.295 703C507.295 680.632 525.204 662.5 547.295 662.5C569.386 662.5 587.295 680.632 587.295 703Z" fill="white"/>
<path d="M379.105 742.543C388.908 766.936 372.766 796.391 343.05 808.333C313.335 820.275 281.298 810.182 271.495 785.79C261.692 761.397 277.835 731.942 307.55 720C337.266 708.058 369.302 718.151 379.105 742.543Z" fill="white"/>
<path d="M322.528 528.097C380.156 505.379 396.019 415.233 396.746 373H433.855C411.153 469.117 497.159 526.641 543 543.388L388.015 598C342.174 584.165 264.9 550.816 322.528 528.097Z" fill="white"/>
<path d="M732.065 729.946C732.065 784.622 687.518 828.946 632.565 828.946C577.613 828.946 533.066 784.622 533.066 729.946C533.066 675.27 577.613 630.946 632.565 630.946C687.518 630.946 732.065 675.27 732.065 729.946Z" fill="white"/>
<path d="M535.514 172.631L475.946 146.036V260.598L554 309.696L535.514 172.631Z" fill="#4367FF"/>
<path d="M288.697 172.631L342.5 146.036V260.598L272 309.696L288.697 172.631Z" fill="#4367FF"/>
<path d="M410.482 309.816V285.357V260.898V0C410.482 0 372.44 16.1995 346.571 93.1474C331.689 137.414 324.938 178.746 321.148 222.171C318.712 250.077 320.069 279.242 322.034 309.816H339.724V326.122H360.458V342.429H410.482V326.122V309.816Z" fill="#DCDFD9"/>
<path d="M410.482 309.816V285.357V260.898L410.482 0C410.482 0 449.581 16.1995 476.168 93.1474C491.464 137.414 498.402 178.746 502.298 222.171C504.801 250.077 503.407 279.242 501.387 309.816H483.206L483.206 326.122H461.896L461.896 342.429H410.482V326.122V309.816Z" fill="#F9F1F9"/>
<path d="M390.402 367.607C403.778 367.607 413.038 367.607 435.674 367.607C460.587 367.607 441.848 439.381 435.674 439.381C429.501 439.381 413.038 468.321 413.038 468.321C413.038 468.321 399.663 439.381 390.402 439.381C381.142 439.381 367.291 367.607 390.402 367.607Z" fill="#E36018"/>
<path d="M394.333 367.607C405.382 367.607 413.032 367.607 431.731 367.607C452.311 367.607 436.831 421.437 431.731 421.437C426.631 421.437 413.032 443.143 413.032 443.143C413.032 443.143 401.982 421.437 394.333 421.437C386.683 421.437 375.24 367.607 394.333 367.607Z" fill="#FFAE44"/>
<path d="M400.227 367.607C407.788 367.607 413.022 367.607 425.816 367.607C439.897 367.607 429.305 403.494 425.816 403.494C422.326 403.494 413.022 417.964 413.022 417.964C413.022 417.964 405.461 403.494 400.227 403.494C394.993 403.494 387.164 367.607 400.227 367.607Z" fill="#FCE25E"/>
<path d="M370.196 342.429H453.286L448.25 372.643H377.75L370.196 342.429Z" fill="#5B6575"/>
<circle cx="411" cy="85.6071" r="35.2857" fill="#00D5CC" stroke="#5B6575" stroke-width="10"/>
<path d="M392.375 175.525L410 148.554L427.625 175.525L410 347.464L392.375 175.525Z" fill="#4367FF"/>
</svg>
