<svg width="90" height="43" viewBox="0 0 90 43" fill="none" xmlns="http://www.w3.org/2000/svg">
<g filter="url(#filter0_i_279_478)">
<rect width="90" height="43" rx="21.5" fill="url(#paint0_linear_279_478)"/>
</g>
<mask id="mask0_279_478" style="mask-type:alpha" maskUnits="userSpaceOnUse" x="0" y="0" width="90" height="43">
<rect width="90" height="43" rx="21.5" fill="url(#paint1_linear_279_478)"/>
</mask>
<g mask="url(#mask0_279_478)">
<circle cx="58" cy="39" r="21" fill="url(#paint2_linear_279_478)"/>
<path d="M-1.79993 26.039V33.2057L2.02507 52.0779C8.85007 54.7057 22.9951 60.1045 24.9751 60.6779C27.4501 61.3945 49.2751 65.2168 50.4001 65.6945C51.3001 66.0768 82.1251 54.0686 97.4251 48.0168L92.4751 27.9501L72.6751 24.6057L52.8751 22.6945L45.4501 23.6501L33.9751 19.589L-1.79993 26.039Z" fill="url(#paint3_linear_279_478)"/>
<path d="M18.675 31.5334L10.35 44.6723L52.2 45.8667L42.525 35.1167H41.4L36.675 27.4723H34.425L28.35 18.1556L21.6 31.5334H18.675Z" fill="url(#paint4_linear_279_478)"/>
<path d="M47.0251 30.5779L38.7001 43.7167L80.5501 44.9112L70.8751 34.1612H69.7501L65.0251 26.5167H62.7751L56.7001 17.2001L49.9501 30.5779H47.0251Z" fill="url(#paint5_linear_279_478)"/>
<path d="M66.5444 33.807L56.25 50.1173L108 51.6001L96.0363 38.2552H94.6452L88.8024 28.7656H86.0202L78.5081 17.2001L70.1613 33.807H66.5444Z" fill="url(#paint6_linear_279_478)"/>
<path d="M-2.30562 31.4181L-12.6 47.7284L39.15 49.2112L27.1863 35.8663H25.7952L19.9524 26.3767H17.1702L9.65809 14.8112L1.31131 31.4181H-2.30562Z" fill="url(#paint7_linear_279_478)"/>
</g>
<path fill-rule="evenodd" clip-rule="evenodd" d="M40 20.8605H19C19.2521 18.9249 20.9073 17.4302 22.9115 17.4302C23.0662 17.4302 23.2188 17.4391 23.3689 17.4564C24.3742 15.4092 26.4797 14 28.9144 14C31.6817 14 34.0237 15.8204 34.8084 18.329C35.2197 18.191 35.6601 18.1163 36.1179 18.1163C37.9102 18.1163 39.4349 19.2617 40 20.8605Z" fill="url(#paint8_linear_279_478)"/>
<defs>
<filter id="filter0_i_279_478" x="0" y="0" width="90" height="49" filterUnits="userSpaceOnUse" color-interpolation-filters="sRGB">
<feFlood flood-opacity="0" result="BackgroundImageFix"/>
<feBlend mode="normal" in="SourceGraphic" in2="BackgroundImageFix" result="shape"/>
<feColorMatrix in="SourceAlpha" type="matrix" values="0 0 0 0 0 0 0 0 0 0 0 0 0 0 0 0 0 0 127 0" result="hardAlpha"/>
<feMorphology radius="3" operator="erode" in="SourceAlpha" result="effect1_innerShadow_279_478"/>
<feOffset dy="6"/>
<feGaussianBlur stdDeviation="4"/>
<feComposite in2="hardAlpha" operator="arithmetic" k2="-1" k3="1"/>
<feColorMatrix type="matrix" values="0 0 0 0 0 0 0 0 0 0 0 0 0 0 0 0 0 0 0.25 0"/>
<feBlend mode="normal" in2="shape" result="effect1_innerShadow_279_478"/>
</filter>
<linearGradient id="paint0_linear_279_478" x1="45" y1="0" x2="45" y2="43" gradientUnits="userSpaceOnUse">
<stop stop-color="#ABFAFF"/>
<stop offset="1" stop-color="#D5FFAB"/>
</linearGradient>
<linearGradient id="paint1_linear_279_478" x1="45" y1="0" x2="45" y2="43" gradientUnits="userSpaceOnUse">
<stop stop-color="#ABFAFF"/>
<stop offset="1" stop-color="#D5FFAB"/>
</linearGradient>
<linearGradient id="paint2_linear_279_478" x1="58" y1="13.5" x2="58" y2="60" gradientUnits="userSpaceOnUse">
<stop offset="0.370713" stop-color="#F6F061"/>
<stop offset="0.699362" stop-color="#61EDF6" stop-opacity="0"/>
</linearGradient>
<linearGradient id="paint3_linear_279_478" x1="47.8126" y1="19.589" x2="47.8126" y2="65.7035" gradientUnits="userSpaceOnUse">
<stop stop-color="#9FDEF2"/>
<stop offset="0.553516" stop-color="#A8FFAC"/>
</linearGradient>
<linearGradient id="paint4_linear_279_478" x1="31.275" y1="18.1556" x2="31.275" y2="45.8667" gradientUnits="userSpaceOnUse">
<stop offset="0.290234" stop-color="#86D2A0"/>
<stop offset="1" stop-color="#517D91"/>
</linearGradient>
<linearGradient id="paint5_linear_279_478" x1="59.6251" y1="17.2001" x2="59.6251" y2="44.9112" gradientUnits="userSpaceOnUse">
<stop offset="0.290234" stop-color="#86D2A0"/>
<stop offset="1" stop-color="#517D91"/>
</linearGradient>
<linearGradient id="paint6_linear_279_478" x1="82.125" y1="17.2001" x2="82.125" y2="51.6001" gradientUnits="userSpaceOnUse">
<stop offset="0.290234" stop-color="#86D2A0"/>
<stop offset="1" stop-color="#517D91"/>
</linearGradient>
<linearGradient id="paint7_linear_279_478" x1="13.275" y1="14.8112" x2="13.275" y2="49.2112" gradientUnits="userSpaceOnUse">
<stop offset="0.290234" stop-color="#86D2A0"/>
<stop offset="1" stop-color="#517D91"/>
</linearGradient>
<linearGradient id="paint8_linear_279_478" x1="29.5" y1="14" x2="29.5" y2="20.8605" gradientUnits="userSpaceOnUse">
<stop stop-color="#A8E0FF"/>
<stop offset="1" stop-color="#7FE0FF" stop-opacity="0"/>
</linearGradient>
</defs>
</svg>
